<?xml version="1.0" encoding="UTF-8" standalone="no"?>
<!-- Created with Inkscape (http://www.inkscape.org/) -->

<svg
   version="1.1"
   id="svg2"
   width="902"
   height="128"
   viewBox="0 0 902 128"
   sodipodi:docname="elinformadorvelogo.svg"
   inkscape:version="1.1.1 (3bf5ae0d25, 2021-09-20)"
   xmlns:inkscape="http://www.inkscape.org/namespaces/inkscape"
   xmlns:sodipodi="http://sodipodi.sourceforge.net/DTD/sodipodi-0.dtd"
   xmlns="http://www.w3.org/2000/svg"
   xmlns:svg="http://www.w3.org/2000/svg">
  <defs
     id="defs6">
    <clipPath
       clipPathUnits="userSpaceOnUse"
       id="clipPath8530">
      <rect
         style="fill:#0000ff;fill-opacity:1;stroke:none"
         id="rect8532"
         width="29.147598"
         height="32.889519"
         x="444.89478"
         y="23.436245"
         ry="2.560266" />
    </clipPath>
    <clipPath
       clipPathUnits="userSpaceOnUse"
       id="clipPath8530-1">
      <rect
         style="fill:#0000ff;fill-opacity:1;stroke:none"
         id="rect8532-9"
         width="29.147598"
         height="32.889519"
         x="444.89478"
         y="23.436245"
         ry="2.560266" />
    </clipPath>
    <clipPath
       clipPathUnits="userSpaceOnUse"
       id="clipPath8530-8">
      <rect
         style="fill:#0000ff;fill-opacity:1;stroke:none"
         id="rect8532-4"
         width="29.147598"
         height="32.889519"
         x="444.89478"
         y="23.436245"
         ry="2.560266" />
    </clipPath>
    <clipPath
       clipPathUnits="userSpaceOnUse"
       id="clipPath8530-3">
      <rect
         style="fill:#0000ff;fill-opacity:1;stroke:none"
         id="rect8532-6"
         width="29.147598"
         height="32.889519"
         x="444.89478"
         y="23.436245"
         ry="2.560266" />
    </clipPath>
  </defs>
  <sodipodi:namedview
     id="namedview4"
     pagecolor="#ffffff"
     bordercolor="#666666"
     borderopacity="1.0"
     inkscape:pageshadow="2"
     inkscape:pageopacity="0.0"
     inkscape:pagecheckerboard="0"
     showgrid="false"
     inkscape:zoom="0.81478579"
     inkscape:cx="557.81532"
     inkscape:cy="60.138506"
     inkscape:window-width="1366"
     inkscape:window-height="739"
     inkscape:window-x="0"
     inkscape:window-y="0"
     inkscape:window-maximized="1"
     inkscape:current-layer="g8"
     showguides="true"
     inkscape:guide-bbox="true" />
  <g
     inkscape:groupmode="layer"
     inkscape:label="Image"
     id="g8">
    <g
       id="g6470"
       transform="translate(4,4)"
       style="fill:#ffffff"
       inkscape:export-filename="/home/farkbarn/Documentos/0_Web/elinformador.com.ve/img/g6470.png"
       inkscape:export-xdpi="96"
       inkscape:export-ydpi="96">
      <g
         id="g7493"
         style="fill:#ffffff">
        <path
           id="rect491"
           style="fill:#ffffff;stroke-width:1.00975"
           d="m 18.90625,14.54297 v 15.662718 h 5.318359 v 19.38276 17.593523 19.925431 H 18.90625 V 103.5625 H 77.990234 V 87.107402 73.062864 H 59.074219 V 87.107402 H 45.503906 V 67.181971 H 63.810547 V 49.588448 H 45.503906 V 30.205688 H 59.074219 V 43.786205 H 77.990234 V 30.205688 20.392403 14.54297 Z" />
        <path
           id="rect491-36"
           style="fill:#ffffff;stroke-width:0.748852"
           d="m 177.24805,14.54297 v 15.662718 h 5.31836 v 56.901719 h -5.31836 V 103.5625 h 32.49609 V 87.107407 H 203.8457 V 30.205688 h 5.89844 V 14.54297 Z" />
        <path
           id="rect491-36-9"
           style="fill:#ffffff;stroke-width:0.695094"
           d="m 215.74414,14.442581 v 15.680382 h 4.57617 V 87.08885 h -4.57617 v 16.47365 h 28.75391 V 87.08885 h -5.86328 V 45.09078 l 15.10546,58.47172 h 26.19336 V 87.882121 h -0.0449 V 30.122963 h 5.95508 V 14.442581 H 256.3008 v 15.680382 h 5.27344 V 66.601602 L 248.3457,14.54297 h -4.63476 v -0.10039 z" />
        <path
           id="rect491-62"
           style="fill:#ffffff;stroke-width:0.769013"
           d="m 85.080078,14.54297 v 15.661098 h 5.316406 V 87.107039 H 85.080078 V 103.5625 H 142.88426 L 142.7832,70.287826 H 122.95312 V 87.107039 H 111.67578 V 30.204068 h 7.67188 V 14.54297 Z"
           sodipodi:nodetypes="ccccccccccccccc" />
        <path
           id="rect491-36-2"
           style="fill:#ffffff;stroke-width:0.999604"
           d="m 289.84375,14.54297 v 15.662718 h 5.57422 v 56.901719 h -5.57422 V 103.5625 h 35.64648 V 87.107407 h -7.76171 v -18.49994 h 18.25586 V 50.687555 H 317.72852 V 30.205688 h 11.48437 v 14.772033 h 18.58789 V 14.841832 h -0.0566 V 14.54297 Z" />
        <path
           id="rect491-36-2-7"
           style="fill:#ffffff;stroke-width:0.99781"
           d="m 701.03711,14.54297 -24.39258,0.207669 H 664.74414 V 30.35717 h 5.57422 v 56.697594 h -5.57422 v 16.396066 h 35.64648 l 3.9961,0.11167 c 17.06766,-1.64321 23.96981,-11.683733 24.18555,-27.247757 L 728.38672,34.324435 C 726.10792,21.116633 717.20697,14.314548 701.03711,14.54297 Z m -8.4082,15.8142 6.91992,0.609293 c 6.33342,2.019822 6.9266,5.478245 7.4414,8.957202 l 0.37305,39.190693 c -0.46515,4.511502 -3.03829,6.908811 -6.97266,7.940406 h -7.76171 V 68.621189 50.765562 Z" />
        <path
           id="rect491-36-2-1"
           style="fill:#ffffff;stroke-width:0.852334"
           d="m 417.31055,14.54297 v 15.662108 h 5.67383 v 56.900388 h -5.67383 V 103.5625 h 32.73828 V 87.105466 h -4.35352 V 68.04492 h 4.32031 c 2.69421,-0.201876 4.39633,1.447483 5.1211,4.921875 l 6.80664,30.595705 H 486.5293 V 87.105466 h -5.47852 c -3.39824,-9.990961 -2.91621,-22.036991 -12.27734,-28.871092 6.39466,-3.111356 10.7832,-9.662436 10.7832,-17.277342 V 33.88086 c 0,-10.641529 -8.56745,-19.208984 -19.20898,-19.208984 H 459.4082 V 14.54297 Z m 28.38476,16.470702 h 4.11133 c 4.37098,0 7.88867,3.689009 7.88867,8.271484 v 4.33789 c 0,4.582475 -3.51769,8.271485 -7.88867,8.271485 h -4.11133 z" />
        <path
           id="rect491-36-2-1-7"
           style="fill:#ffffff;stroke-width:0.852334"
           d="m 801.72084,14.54297 v 15.662109 h 5.67383 V 87.10547 h -5.67383 v 16.45703 h 32.73828 V 87.10547 H 830.1056 V 68.044922 h 4.32031 c 2.69421,-0.201876 4.39633,1.447483 5.1211,4.921875 l 6.80664,30.595703 h 24.58594 V 87.10547 h -5.47852 c -3.39824,-9.990962 -2.91621,-22.036993 -12.27734,-28.871095 6.39466,-3.111356 10.7832,-9.662436 10.7832,-17.277343 v -7.076171 c 0,-10.64153 -8.56745,-19.208985 -19.20898,-19.208985 h -0.93946 V 14.54297 Z m 28.38476,16.470703 h 4.11133 c 4.37098,0 7.88867,3.689009 7.88867,8.271483 v 4.337891 c 0,4.582475 -3.51769,8.271485 -7.88867,8.271485 h -4.11133 z" />
        <path
           id="rect7665"
           style="fill:#ffffff;fill-opacity:1;stroke:none;stroke-width:1.00368"
           d="m 378.76562,14.54297 c -14.29295,0 -25.79882,11.17463 -25.79882,25.053752 v 38.912025 c 0,13.879123 11.50587,25.053753 25.79882,25.053753 h 7.04688 c 14.29296,0 25.79883,-11.17463 25.79883,-25.053753 V 39.596722 c 0,-13.879122 -11.50587,-25.053752 -25.79883,-25.053752 z m 3.10743,15.737777 c 4.02456,0 7.26367,3.145326 7.26367,7.053362 v 42.782934 c 0,3.908036 -3.23911,7.053362 -7.26367,7.053362 -4.02457,0 -7.26367,-3.145326 -7.26367,-7.053362 V 37.334109 c 0,-3.908036 3.2391,-7.053362 7.26367,-7.053362 z" />
        <path
           id="rect7665-9"
           style="fill:#ffffff;fill-opacity:1;stroke:none;stroke-width:1.00273"
           d="m 762.08835,14.54297 c -14.29295,0 -25.79882,11.153394 -25.79882,25.006141 v 38.838076 c 0,13.852748 11.50587,25.006133 25.79882,25.006133 h 7.04688 c 14.29296,0 25.79883,-11.153385 25.79883,-25.006133 V 39.549111 c 0,-13.852747 -11.50587,-25.006141 -25.79883,-25.006141 z m 3.10743,15.70787 c 4.02456,0 7.26367,3.139348 7.26367,7.039958 v 42.701628 c 0,3.900609 -3.23911,7.039958 -7.26367,7.039958 -4.02457,0 -7.26367,-3.139349 -7.26367,-7.039958 V 37.290798 c 0,-3.90061 3.2391,-7.039958 7.26367,-7.039958 z" />
        <path
           id="rect491-36-9-7"
           style="fill:#ffffff;stroke-width:0.695094"
           d="m 489.05078,14.44258 v 15.680382 h 4.57617 v 56.965884 h -4.57617 V 103.5625 h 28.75391 V 87.088846 h -4.47461 V 50.466514 l 13.6875,52.981816 v 0.11417 h 0.0293 19.9414 0.0293 v -0.11417 l 13.6875,-52.981816 v 36.622332 h -4.47461 V 103.5625 h 28.75391 V 87.088846 H 580.4082 V 30.122962 h 4.57618 V 14.44258 h -27.9668 v 0.10039 h -8.63477 L 537.01758,73.532384 525.65234,14.54297 h -8.63476 v -0.10039 z" />
        <path
           id="rect491-36-9-8"
           style="fill:#ffffff;stroke-width:0.694702"
           d="m 610.4043,14.54297 v 0.705865 l -17.375,71.858572 h -4.625 V 103.5625 h 30.4375 V 87.107407 h -5.95508 l 2.0957,-9.319769 h 18.8086 l 2.0957,9.319769 h -5.95508 V 103.5625 h 30.4375 V 87.107407 h -4.625 l -17.375,-71.866438 V 14.54297 Z m 13.98242,21.400079 5.84961,26.024574 h -11.69922 z" />
      </g>
    </g>
  </g>
</svg>
